<svg xmlns="http://www.w3.org/2000/svg" viewBox="0 0 1200 470" width="1200" height="470" role="img" aria-label="Orchestration layer — a request reaches a planner that decomposes it, four specialized agents run in parallel, synthesis merges and verifies before the response">
  <defs><style>
    .m { font-family: ui-monospace, 'SF Mono', 'JetBrains Mono', Menlo, Consolas, 'Liberation Mono', monospace; }
    
      .wire { fill:none; stroke:#D9D9DB; stroke-width:1.4; }
      .flow { fill:none; stroke:#4078F2; stroke-width:1.6; stroke-dasharray:4 12;
              animation: march 2.8s linear infinite; }
      .d1{animation-delay:0s} .d2{animation-delay:.35s}
      .d3{animation-delay:.7s} .d4{animation-delay:1.05s} .d5{animation-delay:1.4s}
      @keyframes march { to { stroke-dashoffset:-64; } }
      @media (prefers-reduced-motion: reduce) { .flow { animation: none; } }

  </style></defs>
  <rect width="1200" height="470" fill="#FAFAFA"/>
  <rect x="0" y="0" width="58" height="470" fill="#F1F1F2"/>
  <path d="M58 0V470" stroke="#D9D9DB"/>
  <text class="m" x="44" y="40" font-size="13" fill="#BFC0C2" text-anchor="end">1</text>
  <text class="m" x="44" y="66" font-size="13" fill="#BFC0C2" text-anchor="end">2</text>
  <text class="m" x="44" y="92" font-size="13" fill="#BFC0C2" text-anchor="end">3</text>
  <text class="m" x="78" y="40" font-size="15" xml:space="preserve"><tspan fill="#A0A1A7">/**  orchestration layer</tspan></text>
  <text class="m" x="78" y="66" font-size="15" xml:space="preserve"><tspan fill="#A0A1A7"> *   plan → dispatch → verify → synthesize</tspan></text>
  <text class="m" x="78" y="92" font-size="15" xml:space="preserve"><tspan fill="#A0A1A7"> */</tspan></text>
  <path class="wire" d="M420 262C468 262 470 130 518 130"/>
  <path class="wire" d="M420 262C468 262 470 212 518 212"/>
  <path class="wire" d="M420 262C468 262 470 294 518 294"/>
  <path class="wire" d="M420 262C468 262 470 376 518 376"/>
  <path class="wire" d="M738 130C786 130 788 262 836 262"/>
  <path class="wire" d="M738 212C786 212 788 262 836 262"/>
  <path class="wire" d="M738 294C786 294 788 262 836 262"/>
  <path class="wire" d="M738 376C786 376 788 262 836 262"/>
  <path class="wire" d="M212 262H292"/>
  <path class="wire" d="M964 262H1044"/>
  <path class="flow d1" d="M420 262C468 262 470 130 518 130"/>
  <path class="flow d2" d="M420 262C468 262 470 212 518 212"/>
  <path class="flow d3" d="M420 262C468 262 470 294 518 294"/>
  <path class="flow d4" d="M420 262C468 262 470 376 518 376"/>
  <path class="flow d4" d="M738 130C786 130 788 262 836 262"/>
  <path class="flow d3" d="M738 212C786 212 788 262 836 262"/>
  <path class="flow d2" d="M738 294C786 294 788 262 836 262"/>
  <path class="flow d1" d="M738 376C786 376 788 262 836 262"/>
  <path class="flow d5" d="M212 262H292"/>
  <path class="flow d5" d="M964 262H1044"/>
  <rect x="112" y="240" width="100" height="44" rx="4" fill="#FFFFFF" stroke="#D9D9DB" stroke-width="1"/>
  <text class="m" x="162.0" y="262.0" font-size="13.5" text-anchor="middle" fill="#383A42" dominant-baseline="middle">request</text>
  <rect x="292" y="218" width="128" height="88" rx="4" fill="#FFFFFF" stroke="#4078F2" stroke-width="1.6"/>
  <text class="m" x="356.0" y="258.0" font-size="13.5" text-anchor="middle" fill="#383A42" dominant-baseline="middle">planner</text>
  <text class="m" x="356.0" y="278.0" font-size="10.5" text-anchor="middle" fill="#BFC0C2">decompose</text>
  <rect x="518" y="108" width="220" height="44" rx="4" fill="#FFFFFF" stroke="#D9D9DB" stroke-width="1"/>
  <text class="m" x="628.0" y="130.0" font-size="13.5" text-anchor="middle" fill="#383A42" dominant-baseline="middle">research()</text>
  <rect x="518" y="190" width="220" height="44" rx="4" fill="#FFFFFF" stroke="#D9D9DB" stroke-width="1"/>
  <text class="m" x="628.0" y="212.0" font-size="13.5" text-anchor="middle" fill="#383A42" dominant-baseline="middle">retrieval()</text>
  <rect x="518" y="272" width="220" height="44" rx="4" fill="#FFFFFF" stroke="#D9D9DB" stroke-width="1"/>
  <text class="m" x="628.0" y="294.0" font-size="13.5" text-anchor="middle" fill="#383A42" dominant-baseline="middle">execution()</text>
  <rect x="518" y="354" width="220" height="44" rx="4" fill="#FFFFFF" stroke="#D9D9DB" stroke-width="1"/>
  <text class="m" x="628.0" y="376.0" font-size="13.5" text-anchor="middle" fill="#383A42" dominant-baseline="middle">review()</text>
  <rect x="836" y="228" width="128" height="68" rx="4" fill="#FFFFFF" stroke="#4078F2" stroke-width="1.6"/>
  <text class="m" x="900.0" y="258.0" font-size="13.5" text-anchor="middle" fill="#383A42" dominant-baseline="middle">synthesis</text>
  <text class="m" x="900.0" y="278.0" font-size="10.5" text-anchor="middle" fill="#BFC0C2">merge · verify</text>
  <rect x="1044" y="240" width="116" height="44" rx="4" fill="#FFFFFF" stroke="#D9D9DB" stroke-width="1"/>
  <text class="m" x="1102.0" y="262.0" font-size="13.5" text-anchor="middle" fill="#383A42" dominant-baseline="middle">response</text>
  <rect x="224.4" y="240" width="55.2" height="16" fill="#FAFAFA"/>
  <text class="m" x="252" y="252" font-size="10" text-anchor="middle" fill="#BFC0C2">intent</text>
  <rect x="446.8" y="164" width="62.4" height="16" fill="#FAFAFA"/>
  <text class="m" x="478" y="176" font-size="10" text-anchor="middle" fill="#BFC0C2">subtask</text>
  <rect x="762.4" y="164" width="55.2" height="16" fill="#FAFAFA"/>
  <text class="m" x="790" y="176" font-size="10" text-anchor="middle" fill="#BFC0C2">result</text>
  <rect x="969.2" y="240" width="69.6" height="16" fill="#FAFAFA"/>
  <text class="m" x="1004" y="252" font-size="10" text-anchor="middle" fill="#BFC0C2">verified</text>
  <path d="M78 430H1160" stroke="#D9D9DB"/>
  <text class="m" x="78" y="454" font-size="11.5" fill="#A0A1A7">// tools: mcp servers · supabase pgvector · typed schemas</text>
</svg>